<?xml version="1.0" encoding="utf-8"?>
<!-- Generator: Adobe Illustrator 16.0.0, SVG Export Plug-In . SVG Version: 6.00 Build 0)  -->
<!DOCTYPE svg PUBLIC "-//W3C//DTD SVG 1.1//EN" "http://www.w3.org/Graphics/SVG/1.1/DTD/svg11.dtd">
<svg version="1.1" id="Layer_1" xmlns="http://www.w3.org/2000/svg" xmlns:xlink="http://www.w3.org/1999/xlink" x="0px" y="0px"
	 width="841.89px" height="595.28px" viewBox="0 0 841.89 595.28" enable-background="new 0 0 841.89 595.28" xml:space="preserve">
<g>
	<path fill="#396050" d="M570.213,297.64c0,81.928-66.811,148.344-149.235,148.344c-82.418,0-149.233-66.416-149.233-148.344
		c0-81.927,66.814-148.343,149.233-148.343C503.402,149.297,570.213,215.713,570.213,297.64z"/>
	<path fill="#497F6B" d="M551.072,297.64c0,71.423-58.246,129.318-130.095,129.318c-71.845,0-130.091-57.896-130.091-129.318
		c0-71.416,58.246-129.313,130.091-129.313C492.826,168.327,551.072,226.224,551.072,297.64z"/>
	<g>
		<g>
			<g>
				<path fill="#FFFFFF" d="M498.841,353.102c0,5.215-0.996,10.116-2.98,14.707c-1.99,4.597-4.697,8.607-8.122,12.031
					c-3.431,3.43-7.44,6.137-12.034,8.122c-4.593,1.993-9.495,2.986-14.705,2.986h-67.87V244.92h66.226
					c5.07,0,9.666,1.099,13.777,3.289c4.116,2.192,7.61,5.039,10.491,8.537c2.88,3.495,5.104,7.474,6.686,11.927
					c1.572,4.459,2.366,8.949,2.366,13.473c0,7.405-1.887,14.19-5.658,20.361c-3.771,6.169-8.879,10.696-15.322,13.576
					c4.113,1.232,7.848,3.051,11.207,5.449c3.359,2.401,6.236,5.245,8.639,8.536c2.398,3.286,4.217,6.89,5.451,10.801
					C498.226,344.774,498.841,348.854,498.841,353.102z M400.121,251.501v62.523h56.558c4.248,0,8.123-0.887,11.623-2.674
					c3.496-1.781,6.545-4.146,9.15-7.096c2.603-2.947,4.627-6.273,6.068-9.978c1.441-3.699,2.158-7.536,2.158-11.515
					c0-4.114-0.688-8.054-2.056-11.826c-1.372-3.77-3.292-7.097-5.761-9.976c-2.465-2.88-5.381-5.173-8.738-6.889
					c-3.361-1.712-7.097-2.571-11.212-2.571H400.121z M491.645,352.487c0-4.115-0.722-8.123-2.158-12.034
					c-1.442-3.907-3.464-7.332-6.069-10.283c-2.607-2.945-5.689-5.313-9.254-7.096c-3.568-1.782-7.477-2.674-11.725-2.674h-62.317
					v63.965h60.878c4.247,0,8.258-0.892,12.031-2.672c3.771-1.781,7.024-4.185,9.77-7.202c2.742-3.013,4.901-6.442,6.482-10.281
					C490.853,360.37,491.645,356.464,491.645,352.487z"/>
			</g>
			<g>
				<path fill="#FFFFFF" d="M342.91,276.935c0-10.188,1.726-19.694,5.186-28.521c3.455-8.823,8.278-16.51,14.468-23.063
					c6.183-6.551,13.508-11.688,21.967-15.42c8.462-3.726,17.605-5.593,27.43-5.593c12.37,0,23.335,2.865,32.887,8.596
					c9.553,5.731,16.784,13.603,21.696,23.604l-9.279,3.276c-4.367-8.366-10.69-14.913-18.964-19.65
					c-8.283-4.728-17.333-7.094-27.158-7.094c-8.188,0-15.876,1.637-23.062,4.911c-7.19,3.275-13.468,7.779-18.833,13.51
					c-5.368,5.731-9.551,12.512-12.552,20.334c-3.005,7.827-4.504,16.196-4.504,25.109c0,8.915,1.587,17.33,4.775,25.245
					c3.184,7.915,7.458,14.872,12.826,20.877c5.365,6.004,11.644,10.738,18.833,14.191c7.184,3.46,14.779,5.187,22.787,5.187
					c5.274,0,10.509-0.772,15.695-2.32c5.182-1.544,9.961-3.59,14.328-6.14c4.363-2.549,8.141-5.502,11.324-8.871
					c3.181-3.367,5.324-6.957,6.416-10.78l9.006,2.729c-1.64,4.914-4.279,9.464-7.916,13.648c-3.641,4.183-7.961,7.775-12.963,10.78
					c-5.006,3.002-10.51,5.366-16.513,7.096c-6.007,1.726-12.19,2.592-18.559,2.592c-9.645,0-18.652-1.957-27.02-5.868
					c-8.371-3.909-15.693-9.231-21.969-15.966c-6.277-6.728-11.237-14.603-14.876-23.608
					C344.728,296.718,342.91,287.124,342.91,276.935z"/>
			</g>
		</g>
		<g>
			<g>
				<path fill="#FFFFFF" d="M381.946,249.401c0,3.369-2.73,6.104-6.1,6.104c-3.373,0-6.102-2.734-6.102-6.104s2.729-6.1,6.102-6.1
					C379.215,243.302,381.946,246.032,381.946,249.401z"/>
			</g>
			<g>
				<circle fill="#FFFFFF" cx="395.649" cy="229.598" r="6.101"/>
			</g>
		</g>
	</g>
</g>
</svg>
